<mxfile host="app.diagrams.net" agent="Mozilla/5.0 (Macintosh; Intel Mac OS X 10_15_7) AppleWebKit/605.1.15 (KHTML, like Gecko) Version/18.3 Safari/605.1.15" version="26.0.16">
  <diagram name="Page-1" id="IcREAzw2sgQeLnBdoRqM">
    <mxGraphModel dx="1242" dy="827" grid="1" gridSize="10" guides="1" tooltips="1" connect="1" arrows="1" fold="1" page="1" pageScale="1" pageWidth="850" pageHeight="1100" math="0" shadow="0">
      <root>
        <mxCell id="0" />
        <mxCell id="1" parent="0" />
        <mxCell id="AfprsVkvONHFLmgtK5Du-1" value="&lt;font style=&quot;font-size: 14px;&quot;&gt;Current&amp;nbsp;&lt;/font&gt;&lt;div&gt;&lt;font size=&quot;3&quot;&gt;Medical Cost Saving &amp;amp; SAI&amp;nbsp;&lt;/font&gt;&lt;/div&gt;" style="text;html=1;align=center;verticalAlign=middle;whiteSpace=wrap;rounded=0;" vertex="1" parent="1">
          <mxGeometry x="50" y="20" width="250" height="30" as="geometry" />
        </mxCell>
        <mxCell id="AfprsVkvONHFLmgtK5Du-2" value="Data Science" style="text;html=1;align=center;verticalAlign=middle;whiteSpace=wrap;rounded=0;" vertex="1" parent="1">
          <mxGeometry x="40" y="95" width="60" height="30" as="geometry" />
        </mxCell>
        <mxCell id="AfprsVkvONHFLmgtK5Du-3" value="PM / HCM Leaders" style="text;html=1;align=center;verticalAlign=middle;whiteSpace=wrap;rounded=0;" vertex="1" parent="1">
          <mxGeometry x="40" y="195" width="60" height="30" as="geometry" />
        </mxCell>
        <mxCell id="AfprsVkvONHFLmgtK5Du-4" value="MEU / ACS &#39; CMO Stakeholder" style="text;html=1;align=center;verticalAlign=middle;whiteSpace=wrap;rounded=0;" vertex="1" parent="1">
          <mxGeometry x="40" y="305" width="60" height="30" as="geometry" />
        </mxCell>
        <mxCell id="AfprsVkvONHFLmgtK5Du-6" value="monthly MCS at product, care model" style="rounded=0;whiteSpace=wrap;html=1;" vertex="1" parent="1">
          <mxGeometry x="130" y="90" width="130" height="40" as="geometry" />
        </mxCell>
        <mxCell id="AfprsVkvONHFLmgtK5Du-7" value="ACS:&amp;nbsp;&lt;div&gt;MOR&lt;/div&gt;" style="rounded=0;whiteSpace=wrap;html=1;" vertex="1" parent="1">
          <mxGeometry x="130" y="295" width="120" height="50" as="geometry" />
        </mxCell>
        <mxCell id="AfprsVkvONHFLmgtK5Du-8" value="ACS:&amp;nbsp;&lt;div&gt;First Read out in March&amp;nbsp;&lt;/div&gt;" style="rounded=0;whiteSpace=wrap;html=1;" vertex="1" parent="1">
          <mxGeometry x="280" y="295" width="120" height="50" as="geometry" />
        </mxCell>
        <mxCell id="AfprsVkvONHFLmgtK5Du-11" value="MEU:&amp;nbsp;&lt;div&gt;Year end Incremental Saving for CM&lt;/div&gt;" style="rounded=0;whiteSpace=wrap;html=1;" vertex="1" parent="1">
          <mxGeometry x="430" y="295" width="120" height="50" as="geometry" />
        </mxCell>
        <mxCell id="AfprsVkvONHFLmgtK5Du-12" value="" style="endArrow=classic;html=1;rounded=0;" edge="1" parent="1">
          <mxGeometry width="50" height="50" relative="1" as="geometry">
            <mxPoint x="340" y="110" as="sourcePoint" />
            <mxPoint x="339.5" y="165" as="targetPoint" />
          </mxGeometry>
        </mxCell>
        <mxCell id="AfprsVkvONHFLmgtK5Du-14" value="Report" style="shape=parallelogram;perimeter=parallelogramPerimeter;whiteSpace=wrap;html=1;fixedSize=1;" vertex="1" parent="1">
          <mxGeometry x="280" y="175" width="120" height="60" as="geometry" />
        </mxCell>
        <mxCell id="AfprsVkvONHFLmgtK5Du-15" value="" style="endArrow=classic;html=1;rounded=0;exitX=0.5;exitY=1;exitDx=0;exitDy=0;" edge="1" parent="1" source="AfprsVkvONHFLmgtK5Du-14">
          <mxGeometry width="50" height="50" relative="1" as="geometry">
            <mxPoint x="340" y="245" as="sourcePoint" />
            <mxPoint x="339.5" y="290" as="targetPoint" />
          </mxGeometry>
        </mxCell>
        <mxCell id="AfprsVkvONHFLmgtK5Du-16" value="" style="endArrow=none;html=1;rounded=0;" edge="1" parent="1">
          <mxGeometry width="50" height="50" relative="1" as="geometry">
            <mxPoint x="200" y="255" as="sourcePoint" />
            <mxPoint x="660" y="255" as="targetPoint" />
          </mxGeometry>
        </mxCell>
        <mxCell id="AfprsVkvONHFLmgtK5Du-17" value="" style="endArrow=classic;html=1;rounded=0;" edge="1" parent="1">
          <mxGeometry width="50" height="50" relative="1" as="geometry">
            <mxPoint x="200" y="255" as="sourcePoint" />
            <mxPoint x="200" y="295" as="targetPoint" />
          </mxGeometry>
        </mxCell>
        <mxCell id="AfprsVkvONHFLmgtK5Du-18" value="" style="endArrow=classic;html=1;rounded=0;" edge="1" parent="1">
          <mxGeometry width="50" height="50" relative="1" as="geometry">
            <mxPoint x="480" y="255" as="sourcePoint" />
            <mxPoint x="480" y="290" as="targetPoint" />
          </mxGeometry>
        </mxCell>
        <mxCell id="AfprsVkvONHFLmgtK5Du-19" value="CMO:&lt;div&gt;Plan sponsor MCS report&lt;/div&gt;" style="rounded=0;whiteSpace=wrap;html=1;" vertex="1" parent="1">
          <mxGeometry x="590" y="295" width="120" height="50" as="geometry" />
        </mxCell>
        <mxCell id="AfprsVkvONHFLmgtK5Du-20" value="" style="endArrow=classic;html=1;rounded=0;" edge="1" parent="1">
          <mxGeometry width="50" height="50" relative="1" as="geometry">
            <mxPoint x="660" y="255" as="sourcePoint" />
            <mxPoint x="660" y="290" as="targetPoint" />
          </mxGeometry>
        </mxCell>
        <mxCell id="AfprsVkvONHFLmgtK5Du-21" value="Insights" style="shape=parallelogram;perimeter=parallelogramPerimeter;whiteSpace=wrap;html=1;fixedSize=1;" vertex="1" parent="1">
          <mxGeometry x="810" y="175" width="120" height="60" as="geometry" />
        </mxCell>
        <mxCell id="AfprsVkvONHFLmgtK5Du-22" value="" style="endArrow=classic;html=1;rounded=0;" edge="1" parent="1">
          <mxGeometry width="50" height="50" relative="1" as="geometry">
            <mxPoint x="880" y="110" as="sourcePoint" />
            <mxPoint x="880" y="166" as="targetPoint" />
          </mxGeometry>
        </mxCell>
        <mxCell id="AfprsVkvONHFLmgtK5Du-23" value="" style="endArrow=none;html=1;rounded=0;exitX=1;exitY=0.5;exitDx=0;exitDy=0;" edge="1" parent="1" source="AfprsVkvONHFLmgtK5Du-6">
          <mxGeometry width="50" height="50" relative="1" as="geometry">
            <mxPoint x="340" y="110" as="sourcePoint" />
            <mxPoint x="880" y="114" as="targetPoint" />
          </mxGeometry>
        </mxCell>
      </root>
    </mxGraphModel>
  </diagram>
</mxfile>
